<svg version="1.2" xmlns="http://www.w3.org/2000/svg" viewBox="0 0 968 219" width="968" height="219">
	<title>logo-svg</title>
	<style>
		.s0 { fill: #fcff52 } 
	</style>
	<g id="Layer">
		<path id="Layer" fill-rule="evenodd" class="s0" d="m749.1 0.4h218.4v218.4h-218.4zm109 189.4c44.4 0 80-35.9 80-80.3 0-44.4-35.6-80-80-80-44.4 0-80 35.9-80 80 0.1 44 36 80.3 80 80.3z"/>
		<path id="Layer" fill-rule="evenodd" class="s0" d="m466.6 142.6v76.2h-218.4v-218.4h218.3v112.2h-189.3c1.6 42.8 36.9 77.2 80 77.2 32.5 0 60.3-19.4 73.1-47.2zm-185.9-56.9h152.5c-11.2-37.2-41.2-56.2-75.9-56.2-34.7 0-67 20.3-76.6 56.2z"/>
		<path id="Layer" class="s0" d="m218.8 0.4h-218.4v218.4h218.4v-76.2h-36.2c-12.5 27.8-40.6 47.2-72.8 47.2-44.4 0-80.3-36.2-80.3-80.3 0-44.1 35.9-80 80.3-80 32.8 0 60.9 20 73.4 48.4h35.6z"/>
		<path id="Layer" class="s0" d="m721.8 142.6h-36.2c-10.9 28.7-40.3 46.9-73.7 46.9-43.1 0-79.4-31.2-79.4-80v-109.1h-36.9v218.4h226.2z"/>
	</g>
</svg>